<svg width="24" height="24" viewBox="0 0 24 24" fill="none" xmlns="http://www.w3.org/2000/svg">
<path fill-rule="evenodd" clip-rule="evenodd" d="M6 4H7C7 5.65685 8.34315 7 10 7H14C15.6569 7 17 5.65685 17 4H18C19.1046 4 20 4.89543 20 6V20C20 21.1046 19.1046 22 18 22H6C4.89543 22 4 21.1046 4 20V6C4 4.89543 4.89543 4 6 4ZM15.6757 11.7372C16.0828 11.364 16.1103 10.7314 15.7372 10.3243C15.364 9.91716 14.7314 9.88965 14.3243 10.2628L11.1818 13.1434L9.67572 11.7628C9.26861 11.3897 8.63604 11.4172 8.26285 11.8243C7.88965 12.2314 7.91716 12.864 8.32428 13.2372L10.5061 15.2372C10.8884 15.5876 11.4752 15.5876 11.8575 15.2372L15.6757 11.7372Z" fill="white"/>
<path d="M9 3C9 2.44772 9.44772 2 10 2H14C14.5523 2 15 2.44772 15 3V4C15 4.55228 14.5523 5 14 5H10C9.44772 5 9 4.55228 9 4V3Z" fill="white"/>
</svg>
