<svg width="24" height="24" viewBox="0 0 24 24" fill="none" xmlns="http://www.w3.org/2000/svg">
<path d="M11.1264 3.03974C11.4837 2.32009 12.5163 2.32009 12.8736 3.03974L15.2091 7.74303C15.351 8.0288 15.6253 8.22688 15.9426 8.2727L21.1648 9.02691C21.9639 9.14231 22.2829 10.1183 21.7047 10.6785L17.9259 14.3395C17.6963 14.5619 17.5915 14.8824 17.6457 15.1965L18.5378 20.3659C18.6743 21.1569 17.839 21.7601 17.1243 21.3866L12.4533 18.946C12.1695 18.7977 11.8305 18.7977 11.5467 18.946L6.87575 21.3866C6.16104 21.7601 5.32573 21.1569 5.46223 20.3659L6.35429 15.1965C6.40849 14.8824 6.30372 14.5619 6.07411 14.3395L2.29526 10.6785C1.71706 10.1183 2.03612 9.14231 2.83518 9.02691L8.05742 8.2727C8.37473 8.22688 8.64903 8.0288 8.79094 7.74303L11.1264 3.03974Z" fill="#FBCB22"/>
</svg>
