<svg width="24" height="24" viewBox="0 0 24 24" fill="none" xmlns="http://www.w3.org/2000/svg">
<g clip-path="url(#clip0_149_816)">
<path d="M12.1397 6.32129C11.2707 6.32129 9.926 5.33313 8.50976 5.36796C6.63978 5.39271 4.92562 6.45237 3.96221 8.13078C2.02164 11.4995 3.46171 16.4751 5.35462 19.2132C6.2832 20.546 7.3786 22.0457 8.83059 21.9989C10.2239 21.9394 10.7464 21.0942 12.4377 21.0942C14.1161 21.0942 14.5918 21.9989 16.0676 21.9632C17.5682 21.9394 18.5206 20.6065 19.4373 19.2609C20.4969 17.7135 20.9369 16.213 20.9608 16.1305C20.925 16.1186 18.0439 15.0112 18.0091 11.6783C17.9853 8.89161 20.2824 7.55878 20.3897 7.4992C19.0798 5.58338 17.0686 5.36888 16.3655 5.32121C14.5322 5.17821 12.9968 6.32037 12.1397 6.32037V6.32129ZM15.2362 3.51081C16.009 2.58315 16.5195 1.28607 16.3775 0C15.2711 0.0476663 13.9373 0.737912 13.1398 1.66649C12.4248 2.48782 11.807 3.80964 11.9729 5.07097C13.1994 5.1663 14.4616 4.4403 15.2353 3.51173" fill="white"/>
</g>
<defs>
<clipPath id="clip0_149_816">
<rect width="24" height="24" fill="white"/>
</clipPath>
</defs>
</svg>
