<svg width="24" height="24" viewBox="0 0 24 24" fill="none" xmlns="http://www.w3.org/2000/svg">
<path d="M12.3695 11.155V13.6796H18.4038C18.2191 15.0958 17.7473 16.1326 17.0284 16.8607C16.1456 17.7436 14.7709 18.708 12.3695 18.708C8.65415 18.708 5.75011 15.7116 5.75011 11.9963C5.75011 8.281 8.65415 5.28459 12.3695 5.28459C14.3706 5.28459 15.8384 6.07507 16.916 7.09106L18.6917 5.31538C17.1931 3.85836 15.1811 2.75 12.3695 2.75C7.27948 2.75 3 6.89633 3 11.9863C3 17.0763 7.27948 21.2226 12.3695 21.2226C15.1196 21.2226 17.1931 20.3197 18.8141 18.6364C20.4766 16.9739 21 14.624 21 12.7352C21 12.1502 20.9592 11.6061 20.8668 11.155H12.3695Z" fill="white"/>
</svg>
