<svg width="19" height="22" viewBox="0 0 19 22" fill="none" xmlns="http://www.w3.org/2000/svg">
<path d="M9.63974 6.32129C8.77075 6.32129 7.426 5.33313 6.00976 5.36796C4.13978 5.39271 2.42562 6.45237 1.46221 8.13078C-0.478359 11.4995 0.961715 16.4751 2.85462 19.2132C3.7832 20.546 4.8786 22.0457 6.33059 21.9989C7.72392 21.9394 8.24642 21.0942 9.93765 21.0942C11.6161 21.0942 12.0918 21.9989 13.5676 21.9632C15.0682 21.9394 16.0206 20.6065 16.9373 19.2609C17.9969 17.7135 18.4369 16.213 18.4608 16.1305C18.425 16.1186 15.5439 15.0112 15.5091 11.6783C15.4853 8.89161 17.7824 7.55878 17.8897 7.4992C16.5798 5.58338 14.5686 5.36888 13.8655 5.32121C12.0322 5.17821 10.4968 6.32037 9.63974 6.32037V6.32129ZM12.7362 3.51081C13.509 2.58315 14.0195 1.28607 13.8775 0C12.7711 0.0476663 11.4373 0.737912 10.6398 1.66649C9.92482 2.48782 9.30699 3.80964 9.47291 5.07097C10.6994 5.1663 11.9616 4.4403 12.7353 3.51173" fill="white"/>
</svg>
