<svg width="24" height="24" viewBox="0 0 24 24" fill="none" xmlns="http://www.w3.org/2000/svg">
<path fill-rule="evenodd" clip-rule="evenodd" d="M6 3.73499H7C7 5.39184 8.34315 6.73499 10 6.73499H14C15.6569 6.73499 17 5.39184 17 3.73499H18C19.1046 3.73499 20 4.63042 20 5.73499V19.735C20 20.8396 19.1046 21.735 18 21.735H6C4.89543 21.735 4 20.8396 4 19.735V5.73499C4 4.63042 4.89543 3.73499 6 3.73499ZM15.6757 11.4721C16.0828 11.0989 16.1103 10.4664 15.7372 10.0593C15.364 9.65214 14.7314 9.62464 14.3243 9.99783L11.1818 12.8784L9.67572 11.4978C9.26861 11.1246 8.63604 11.1521 8.26285 11.5593C7.88965 11.9664 7.91716 12.5989 8.32428 12.9721L10.5061 14.9721C10.8884 15.3226 11.4752 15.3226 11.8575 14.9721L15.6757 11.4721Z" fill="#808080"/>
<path d="M9 2.73499C9 2.1827 9.44772 1.73499 10 1.73499H14C14.5523 1.73499 15 2.1827 15 2.73499V3.73499C15 4.28727 14.5523 4.73499 14 4.73499H10C9.44772 4.73499 9 4.28727 9 3.73499V2.73499Z" fill="#808080"/>
</svg>
