<svg width="24" height="24" viewBox="0 0 24 24" fill="none" xmlns="http://www.w3.org/2000/svg">
<path d="M12.4258 3.26211L14.7612 7.9654C14.9766 8.39917 15.3921 8.6984 15.8711 8.76757L21.0934 9.52178C21.4857 9.57844 21.6336 10.0512 21.3568 10.3194L17.578 13.9804C17.2301 14.3174 17.0706 14.804 17.153 15.2815L18.0451 20.4509C18.1099 20.827 17.7098 21.1284 17.3558 20.9435L12.6849 18.5028C12.256 18.2787 11.744 18.2787 11.3151 18.5028L6.64419 20.9435C6.29024 21.1284 5.89006 20.827 5.95494 20.4509L6.84701 15.2815C6.92942 14.804 6.76992 14.3174 6.42202 13.9804L2.64317 10.3194C2.3664 10.0512 2.51431 9.57844 2.90665 9.52178L8.12889 8.76757C8.60787 8.6984 9.02337 8.39917 9.23877 7.9654L11.5742 3.26211C11.7478 2.91263 12.2522 2.91263 12.4258 3.26211Z" stroke="#DFDFDF"/>
</svg>
