<svg width="24" height="24" viewBox="0 0 24 24" fill="none" xmlns="http://www.w3.org/2000/svg">
<path d="M16.5 7.28306C15.2356 6.8133 13.7401 6.5 12 6.5C5.04858 6.5 2 11.5 2 11.5C2 11.5 3.86387 14.557 8 15.8903" stroke="#ACACAC"/>
<path d="M19 5L5 19" stroke="#ACACAC" stroke-linecap="round" stroke-linejoin="round"/>
<path d="M14.2361 9.5C13.6868 8.88625 12.8885 8.5 12 8.5C10.3431 8.5 9 9.84315 9 11.5C9 12.3885 9.38625 13.1868 10 13.7361" stroke="#ACACAC"/>
<path fill-rule="evenodd" clip-rule="evenodd" d="M11.1589 14.8983C11.4284 14.9648 11.7101 15 12 15C13.933 15 15.5 13.433 15.5 11.5C15.5 11.2101 15.4648 10.9284 15.3983 10.6589L14.4994 11.5579C14.469 12.8926 13.3926 13.969 12.0579 13.9994L11.1589 14.8983Z" fill="#ACACAC"/>
<path fill-rule="evenodd" clip-rule="evenodd" d="M9.31274 16.7444C9.4534 16.7721 9.59607 16.7977 9.74078 16.8212C10.446 16.9358 11.1989 17 12.0001 17C15.6049 17 18.2092 15.7011 19.911 14.3969C20.7602 13.7461 21.3843 13.0945 21.7977 12.6032C22.0046 12.3573 22.1593 12.151 22.2634 12.004C22.3155 11.9306 22.3551 11.8719 22.3822 11.8304C22.3958 11.8097 22.4063 11.7933 22.4138 11.7815L22.4227 11.7673L22.4254 11.7629L22.4264 11.7614C22.4265 11.7611 22.427 11.7603 22.0001 11.5L22.427 11.7603L22.5857 11.5L22.4268 11.2394L22.4261 11.2383L22.4248 11.2361L22.4207 11.2295L22.407 11.2078C22.3954 11.1896 22.3788 11.164 22.3572 11.1318C22.3139 11.0672 22.2506 10.9758 22.1666 10.8625C21.9987 10.636 21.748 10.3218 21.4109 9.96094C20.7562 9.26031 19.7717 8.38007 18.4301 7.62708L17.693 8.36413C17.7397 8.3888 17.7858 8.41365 17.8316 8.43867C19.1218 9.14438 20.0629 9.98299 20.6802 10.6437C20.9886 10.9737 21.2152 11.2584 21.3633 11.458L21.3942 11.5C21.3064 11.6202 21.1861 11.7768 21.0326 11.9593C20.6572 12.4055 20.0846 13.0039 19.3028 13.6031C17.7425 14.7989 15.3467 16 12.0001 16C11.3583 16 10.7522 15.9559 10.1809 15.8763L9.31274 16.7444ZM22.0001 11.5C22.427 11.2397 22.4269 11.2396 22.4268 11.2394L22.0001 11.5Z" fill="#ACACAC"/>
</svg>
