<svg width="232" height="80" viewBox="0 0 232 80" fill="none" xmlns="http://www.w3.org/2000/svg">
<path d="M44.0421 14.9999H42.7681L37.6441 7.22988V14.9999H36.3701V5.22788H37.6441L42.7681 12.9839V5.22788H44.0421V14.9999Z" fill="#242424"/>
<path d="M47.4879 6.27788V9.53988H51.0439V10.5899H47.4879V13.9499H51.4639V14.9999H46.2139V5.22788H51.4639V6.27788H47.4879Z" fill="#242424"/>
<path d="M65.6556 5.24188L62.8276 14.9999H61.3996L59.1316 7.14588L56.7796 14.9999L55.3656 15.0139L52.6356 5.24188H53.9936L56.1216 13.5159L58.4736 5.24188H59.9016L62.1416 13.4879L64.2836 5.24188H65.6556Z" fill="#242424"/>
<path d="M83.0462 5.24188L80.2182 14.9999H78.7902L76.5222 7.14588L74.1702 14.9999L72.7562 15.0139L70.0262 5.24188H71.3842L73.5122 13.5159L75.8642 5.24188H77.2922L79.5322 13.4879L81.6742 5.24188H83.0462Z" fill="#242424"/>
<path d="M90.2084 12.8299H85.9524L85.1684 14.9999H83.8244L87.3524 5.29788H88.8224L92.3364 14.9999H90.9924L90.2084 12.8299ZM89.8444 11.7939L88.0804 6.86588L86.3164 11.7939H89.8444Z" fill="#242424"/>
<path d="M100.706 5.24188L97.528 11.3179V14.9999H96.254V11.3179L93.062 5.24188H94.476L96.884 10.1839L99.292 5.24188H100.706Z" fill="#242424"/>
<path d="M111.788 5.24188V6.27788H109.128V14.9999H107.854V6.27788H105.18V5.24188H111.788Z" fill="#242424"/>
<path d="M117.78 15.0979C116.875 15.0979 116.049 14.8879 115.302 14.4679C114.556 14.0386 113.963 13.4459 113.524 12.6899C113.095 11.9245 112.88 11.0659 112.88 10.1139C112.88 9.16188 113.095 8.30788 113.524 7.55188C113.963 6.78655 114.556 6.19388 115.302 5.77388C116.049 5.34455 116.875 5.12988 117.78 5.12988C118.695 5.12988 119.526 5.34455 120.272 5.77388C121.019 6.19388 121.607 6.78188 122.036 7.53788C122.466 8.29388 122.68 9.15255 122.68 10.1139C122.68 11.0752 122.466 11.9339 122.036 12.6899C121.607 13.4459 121.019 14.0386 120.272 14.4679C119.526 14.8879 118.695 15.0979 117.78 15.0979ZM117.78 13.9919C118.462 13.9919 119.073 13.8332 119.614 13.5159C120.165 13.1986 120.594 12.7459 120.902 12.1579C121.22 11.5699 121.378 10.8886 121.378 10.1139C121.378 9.32988 121.22 8.64855 120.902 8.06988C120.594 7.48188 120.17 7.02922 119.628 6.71188C119.087 6.39455 118.471 6.23588 117.78 6.23588C117.09 6.23588 116.474 6.39455 115.932 6.71188C115.391 7.02922 114.962 7.48188 114.644 8.06988C114.336 8.64855 114.182 9.32988 114.182 10.1139C114.182 10.8886 114.336 11.5699 114.644 12.1579C114.962 12.7459 115.391 13.1986 115.932 13.5159C116.483 13.8332 117.099 13.9919 117.78 13.9919Z" fill="#242424"/>
<path d="M140.359 5.24188L137.531 14.9999H136.103L133.835 7.14588L131.483 14.9999L130.069 15.0139L127.339 5.24188H128.697L130.825 13.5159L133.177 5.24188H134.605L136.845 13.4879L138.987 5.24188H140.359Z" fill="#242424"/>
<path d="M146.177 15.0979C145.272 15.0979 144.446 14.8879 143.699 14.4679C142.952 14.0386 142.36 13.4459 141.921 12.6899C141.492 11.9245 141.277 11.0659 141.277 10.1139C141.277 9.16188 141.492 8.30788 141.921 7.55188C142.36 6.78655 142.952 6.19388 143.699 5.77388C144.446 5.34455 145.272 5.12988 146.177 5.12988C147.092 5.12988 147.922 5.34455 148.669 5.77388C149.416 6.19388 150.004 6.78188 150.433 7.53788C150.862 8.29388 151.077 9.15255 151.077 10.1139C151.077 11.0752 150.862 11.9339 150.433 12.6899C150.004 13.4459 149.416 14.0386 148.669 14.4679C147.922 14.8879 147.092 15.0979 146.177 15.0979ZM146.177 13.9919C146.858 13.9919 147.47 13.8332 148.011 13.5159C148.562 13.1986 148.991 12.7459 149.299 12.1579C149.616 11.5699 149.775 10.8886 149.775 10.1139C149.775 9.32988 149.616 8.64855 149.299 8.06988C148.991 7.48188 148.566 7.02922 148.025 6.71188C147.484 6.39455 146.868 6.23588 146.177 6.23588C145.486 6.23588 144.87 6.39455 144.329 6.71188C143.788 7.02922 143.358 7.48188 143.041 8.06988C142.733 8.64855 142.579 9.32988 142.579 10.1139C142.579 10.8886 142.733 11.5699 143.041 12.1579C143.358 12.7459 143.788 13.1986 144.329 13.5159C144.88 13.8332 145.496 13.9919 146.177 13.9919Z" fill="#242424"/>
<path d="M157.897 14.9999L155.573 11.0099H154.033V14.9999H152.759V5.24188H155.909C156.646 5.24188 157.267 5.36788 157.771 5.61988C158.284 5.87188 158.667 6.21255 158.919 6.64188C159.171 7.07122 159.297 7.56122 159.297 8.11188C159.297 8.78388 159.101 9.37655 158.709 9.88988C158.326 10.4032 157.747 10.7439 156.973 10.9119L159.423 14.9999H157.897ZM154.033 9.98788H155.909C156.599 9.98788 157.117 9.81988 157.463 9.48388C157.808 9.13855 157.981 8.68122 157.981 8.11188C157.981 7.53322 157.808 7.08522 157.463 6.76788C157.127 6.45055 156.609 6.29188 155.909 6.29188H154.033V9.98788Z" fill="#242424"/>
<path d="M166.568 14.9999L162.55 10.5479V14.9999H161.276V5.24188H162.55V9.76388L166.582 5.24188H168.192L163.768 10.1279L168.234 14.9999H166.568Z" fill="#242424"/>
<path d="M174.081 15.0979C173.176 15.0979 172.35 14.8879 171.603 14.4679C170.857 14.0386 170.264 13.4459 169.825 12.6899C169.396 11.9245 169.181 11.0659 169.181 10.1139C169.181 9.16188 169.396 8.30788 169.825 7.55188C170.264 6.78655 170.857 6.19388 171.603 5.77388C172.35 5.34455 173.176 5.12988 174.081 5.12988C174.996 5.12988 175.827 5.34455 176.573 5.77388C177.32 6.19388 177.908 6.78188 178.337 7.53788C178.767 8.29388 178.981 9.15255 178.981 10.1139C178.981 11.0752 178.767 11.9339 178.337 12.6899C177.908 13.4459 177.32 14.0386 176.573 14.4679C175.827 14.8879 174.996 15.0979 174.081 15.0979ZM174.081 13.9919C174.763 13.9919 175.374 13.8332 175.915 13.5159C176.466 13.1986 176.895 12.7459 177.203 12.1579C177.521 11.5699 177.679 10.8886 177.679 10.1139C177.679 9.32988 177.521 8.64855 177.203 8.06988C176.895 7.48188 176.471 7.02922 175.929 6.71188C175.388 6.39455 174.772 6.23588 174.081 6.23588C173.391 6.23588 172.775 6.39455 172.233 6.71188C171.692 7.02922 171.263 7.48188 170.945 8.06988C170.637 8.64855 170.483 9.32988 170.483 10.1139C170.483 10.8886 170.637 11.5699 170.945 12.1579C171.263 12.7459 171.692 13.1986 172.233 13.5159C172.784 13.8332 173.4 13.9919 174.081 13.9919Z" fill="#242424"/>
<path d="M181.909 5.24188V11.4159C181.909 12.2839 182.119 12.9279 182.539 13.3479C182.968 13.7679 183.561 13.9779 184.317 13.9779C185.064 13.9779 185.647 13.7679 186.067 13.3479C186.496 12.9279 186.711 12.2839 186.711 11.4159V5.24188H187.985V11.4019C187.985 12.2139 187.822 12.8999 187.495 13.4599C187.168 14.0106 186.725 14.4212 186.165 14.6919C185.614 14.9626 184.994 15.0979 184.303 15.0979C183.612 15.0979 182.987 14.9626 182.427 14.6919C181.876 14.4212 181.438 14.0106 181.111 13.4599C180.794 12.8999 180.635 12.2139 180.635 11.4019V5.24188H181.909Z" fill="#242424"/>
<path d="M196.116 5.24188V6.27788H193.456V14.9999H192.182V6.27788H189.508V5.24188H196.116Z" fill="#242424"/>
<path d="M141.877 33.0039L128.668 50.2345L120.917 33.0039H113.101L106.766 72.9725H114.582L118.52 48.1043L124.044 60.3606H130.082L139.486 48.1015L135.545 72.9697H143.36L149.698 33.0039H141.877Z" fill="#242424"/>
<path d="M45.393 62.1906L48.2981 43.838C48.6036 42.1688 50.0311 40.9357 51.7281 40.8774H61.4987C62.8485 40.8218 63.9844 41.8717 64.04 43.2214C64.0483 43.4297 64.0317 43.6353 63.9872 43.8408L61.0849 62.1934C60.7794 63.8626 59.3518 65.0957 57.6549 65.154H47.8843C46.5039 65.1707 45.3708 64.0681 45.3541 62.6878C45.3541 62.5211 45.3652 62.3573 45.3958 62.1934M52.8557 33.0036C46.7483 33.2147 41.6103 37.6501 40.5077 43.663L37.5526 62.3156C36.5805 67.1343 39.6967 71.828 44.5153 72.8028C45.1764 72.9361 45.8485 72.9944 46.5206 72.975H56.5856C62.693 72.7639 67.831 68.3285 68.9336 62.3156L71.8887 43.663C72.8663 38.8499 69.7557 34.1562 64.9426 33.1786C64.2761 33.0425 63.5984 32.9842 62.9207 33.0036H52.8529H52.8557Z" fill="#242424"/>
<path d="M80.0871 62.1906L82.995 43.8352C83.3005 42.1661 84.728 40.9329 86.425 40.8746H96.1956C97.5454 40.8191 98.6813 41.8689 98.7369 43.2187C98.7452 43.427 98.7285 43.6325 98.6841 43.838L95.7818 62.1934C95.4763 63.8626 94.0487 65.0957 92.3518 65.154H82.5811C81.2008 65.1707 80.0677 64.0681 80.051 62.6878C80.051 62.5211 80.0621 62.3573 80.0926 62.1934M87.5526 33.0037C81.4452 33.2147 76.3071 37.6501 75.2045 43.663L72.2495 62.3156C71.2718 67.1287 74.3825 71.8224 79.1956 72.8C79.8621 72.9361 80.5398 72.9944 81.2202 72.975H91.2853C97.3926 72.7639 102.531 68.3285 103.633 62.3156L106.588 43.663C107.56 38.8444 104.444 34.1507 99.6256 33.1758C98.9646 33.0425 98.2925 32.9842 97.6176 33.0037H87.5526Z" fill="#242424"/>
<path d="M6.33232 33.0037L0 72.9724H7.81541L12.8979 40.8775H26.8124C28.1621 40.8219 29.2981 41.8718 29.3536 43.2216C29.362 43.4299 29.3453 43.6354 29.3009 43.8409L28.3066 50.1232C28.0177 51.8035 26.5818 53.045 24.8766 53.0839H16.414L12.7979 60.9521H19.7246L24.7488 72.9724H33.8085L28.3427 60.005C32.3615 58.3191 35.2777 54.7475 36.1248 50.4732L36.1525 50.2954L37.1996 43.6632C37.2107 43.6048 37.219 43.5437 37.2274 43.4854C38.1133 38.6584 34.9166 34.0286 30.0896 33.1454C29.4786 33.0343 28.8565 32.9871 28.2371 33.0037H6.33232Z" fill="#242424"/>
<path d="M188.907 33.0283L182.574 72.9997H190.39L196.728 33.0283H188.907Z" fill="#5252FA"/>
<path d="M164.274 40.9048H178.958L182.574 33.0283H165.402C159.294 33.2422 154.156 37.6748 153.056 43.6877L148.413 72.9997H156.228L158.769 56.9523H175.586L176.833 49.0757H160.019L160.844 43.8655C161.149 42.1963 162.577 40.9632 164.274 40.9048Z" fill="#5252FA"/>
<path d="M201.109 33.0283L199.862 40.9048H211.294L210.73 44.8098L206.267 72.9997H214.082L219.165 40.9048H230.652L231.899 33.0283H201.109Z" fill="#5252FA"/>
</svg>
