<svg width="64" height="64" viewBox="0 0 64 64" fill="none" xmlns="http://www.w3.org/2000/svg">
<path d="M32 0C14.3269 0 0 14.3269 0 32C0 49.6731 14.3269 64 32 64C49.6731 64 64 49.6731 64 32C64 14.3269 49.6731 0 32 0Z" fill="#808080"/>
<path d="M54.2614 54.9868C54.297 54.4141 54.3047 53.942 54.2824 53.7324C53.8975 50.115 51.6199 46.8453 48.0399 44.4363L48.035 44.433C43.541 41.426 37.7244 39.9927 32.0214 39.9927C26.3177 39.9927 20.4898 41.4263 15.9694 44.4289L15.9583 44.4363C12.3783 46.8453 10.1006 50.115 9.71579 53.7324C9.69349 53.942 9.70119 54.4142 9.73676 54.9868C15.4965 60.5662 23.3467 64 31.999 64C40.6514 64 48.5017 60.5661 54.2614 54.9868Z" fill="#F3F7FE"/>
<circle cx="32" cy="24.5581" r="11.907" fill="#F3F7FE"/>
</svg>
