<svg width="24" height="24" viewBox="0 0 24 24" fill="none" xmlns="http://www.w3.org/2000/svg">
<path d="M0 12C0 18.6274 5.37258 24 12 24C18.6274 24 24 18.6274 24 12C24 5.37258 18.6274 0 12 0C5.37258 0 0 5.37258 0 12Z" fill="#242424"/>
<path d="M5.35273 9.51905L5.40987 15.519C5.42032 16.6161 6.31264 17.5 7.40978 17.5H16.5905C17.6877 17.5 18.58 16.6161 18.5905 15.519L18.6476 9.51905C18.6582 8.40708 17.7597 7.5 16.6477 7.5H14.3335L13.6099 6.05279C13.4405 5.714 13.0942 5.5 12.7155 5.5H11.2849C10.9061 5.5 10.5598 5.714 10.3904 6.05279L9.66683 7.5H7.35263C6.24062 7.5 5.34213 8.40708 5.35273 9.51905Z" fill="white"/>
<path d="M12 14.3334C13.1015 14.3334 14 13.4349 14 12.3334C14 11.2318 13.1015 10.3334 12 10.3334C10.8985 10.3334 10 11.2318 10 12.3334C10 13.4349 10.8985 14.3334 12 14.3334Z" stroke="#242424" stroke-linecap="round" stroke-linejoin="round"/>
</svg>
