<svg width="16" height="16" viewBox="0 0 16 16" fill="none" xmlns="http://www.w3.org/2000/svg">
<circle cx="8" cy="8" r="7.5" stroke="#DFDFDF"/>
<path d="M7.10938 9.48047V9.55078H8.30469V9.48047C8.32227 8.52539 8.59766 8.10352 9.30078 7.67578C10.0449 7.21875 10.4961 6.5918 10.4961 5.64844C10.4961 4.3125 9.47656 3.39844 7.95312 3.39844C6.55859 3.39844 5.43359 4.21289 5.38672 5.70703H6.65234C6.70508 4.83984 7.32031 4.45312 7.95312 4.45312C8.65625 4.45312 9.21875 4.91602 9.21875 5.64844C9.21875 6.26367 8.84375 6.69727 8.35156 6.99609C7.57812 7.47656 7.12695 7.94531 7.10938 9.48047ZM6.92188 11.25C6.91602 11.707 7.29688 12.0762 7.75391 12.082C8.20508 12.0762 8.58008 11.707 8.58594 11.25C8.58008 10.793 8.20508 10.418 7.75391 10.418C7.29688 10.418 6.91602 10.793 6.92188 11.25Z" fill="#ACACAC"/>
</svg>
